<svg width="1879" height="337" viewBox="0 0 1879 337" fill="none" xmlns="http://www.w3.org/2000/svg">
<path fill-rule="evenodd" clip-rule="evenodd" d="M335.811 5.92351e-05C150.348 2.65205e-05 -2.6143e-05 150.845 -5.8392e-05 336.921L115.435 336.921C115.435 214.808 214.101 115.817 335.811 115.817L335.811 5.92351e-05Z" fill="#121042"/>
<path fill-rule="evenodd" clip-rule="evenodd" d="M556.188 5.92351e-05C370.725 2.65205e-05 220.377 150.845 220.377 336.921L335.812 336.921C335.812 214.808 434.478 115.817 556.188 115.817L556.188 5.92351e-05Z" fill="#121042"/>
<path d="M0 0L115.435 0L115.435 336.921H0L0 0Z" fill="#FFBE2C"/>
<path d="M220.377 0L335.812 0L335.812 336.921H220.377L220.377 0Z" fill="#FF3366"/>
<path d="M440.753 0L556.188 0V336.921H440.753L440.753 0Z" fill="#43A6CF"/>
<path d="M1774.56 247.96V227.029L1844.99 152.638H1778.52V131.141H1878.65V152.073L1809.63 226.463H1878.65V247.96H1774.56Z" fill="#121042"/>
<path d="M1696.23 242.869V93.8045H1724.79V242.869H1696.23ZM1674.73 247.96V223.352H1745.73V247.96H1674.73ZM1674.73 113.604V88.7131H1745.73V113.604H1674.73Z" fill="#121042"/>
<path d="M1502.92 247.96L1553.83 88.7131H1601.07L1653.4 247.96H1622.57L1577.88 100.876L1533.47 247.96H1502.92ZM1537.15 202.986L1537.43 180.641H1618.04L1618.33 202.986H1537.15Z" fill="#121042"/>
<path d="M1413.85 247.96V131.707H1440.72L1442.99 165.65L1442.7 190.541V247.96H1413.85ZM1442.7 197.895L1441.86 172.155C1441.86 168.195 1442.61 163.952 1444.12 159.427C1445.63 154.713 1448.08 150.281 1451.47 146.133C1455.06 141.984 1459.68 138.59 1465.33 135.95C1470.99 133.121 1477.97 131.707 1486.26 131.707H1490.51V163.952H1486.26C1478.16 163.952 1471.27 164.612 1465.62 165.932C1459.96 167.064 1455.43 168.95 1452.04 171.59C1448.83 174.23 1446.48 177.718 1444.97 182.055C1443.46 186.392 1442.7 191.672 1442.7 197.895Z" fill="#121042"/>
<path d="M1333.61 250.789C1320.79 250.789 1309.95 248.243 1301.08 243.152C1292.41 238.06 1285.9 231.083 1281.57 222.221C1277.23 213.169 1275.06 202.892 1275.06 191.389C1275.06 179.698 1277.23 169.421 1281.57 160.558C1285.9 151.507 1292.41 144.435 1301.08 139.344C1309.95 134.253 1320.88 131.707 1333.9 131.707C1352.94 131.707 1367.37 137.176 1377.17 148.113C1387.17 159.05 1392.16 173.475 1392.16 191.389C1392.16 202.515 1390.09 212.603 1385.94 221.655C1381.79 230.706 1375.38 237.872 1366.71 243.152C1358.03 248.243 1347 250.789 1333.61 250.789ZM1333.61 226.463C1342.1 226.463 1348.51 224.672 1352.85 221.089C1357.37 217.506 1360.39 212.981 1361.9 207.512C1363.41 201.855 1364.16 196.198 1364.16 190.541C1364.16 184.507 1363.41 178.755 1361.9 173.287C1360.39 167.818 1357.37 163.292 1352.85 159.71C1348.51 155.938 1342.1 154.053 1333.61 154.053C1325.32 154.053 1318.9 155.938 1314.38 159.71C1310.04 163.292 1307.02 167.818 1305.33 173.287C1303.82 178.755 1303.06 184.507 1303.06 190.541C1303.06 196.198 1303.82 201.855 1305.33 207.512C1307.02 212.981 1310.04 217.506 1314.38 221.089C1318.9 224.672 1325.32 226.463 1333.61 226.463Z" fill="#121042"/>
<path d="M1086.22 247.96V131.707H1113.65L1114.22 156.881H1114.78C1114.97 156.127 1115.63 154.524 1116.76 152.073C1118.08 149.433 1120.06 146.604 1122.7 143.587C1125.53 140.381 1129.12 137.647 1133.45 135.384C1137.79 132.933 1143.16 131.707 1149.58 131.707C1155.8 131.707 1160.98 132.933 1165.13 135.384C1169.28 137.836 1172.58 140.947 1175.03 144.718C1177.67 148.49 1179.56 152.544 1180.69 156.881H1181.26C1181.44 156.127 1182.29 154.43 1183.8 151.79C1185.31 149.15 1187.48 146.321 1190.31 143.304C1193.14 140.098 1196.81 137.364 1201.34 135.101C1206.05 132.838 1211.71 131.707 1218.31 131.707C1225.66 131.707 1231.7 133.31 1236.41 136.516C1241.32 139.533 1245.18 143.493 1248.01 148.395C1250.84 153.11 1252.91 158.201 1254.23 163.67C1255.74 169.138 1256.68 174.418 1257.06 179.509C1257.44 184.412 1257.63 188.467 1257.63 191.672V247.96H1229.62V191.389C1229.62 188.372 1229.44 184.978 1229.06 181.207C1228.87 177.247 1228.12 173.475 1226.8 169.892C1225.66 166.121 1223.68 163.104 1220.86 160.841C1218.03 158.39 1214.07 157.164 1208.98 157.164C1202.75 157.164 1197.94 158.955 1194.55 162.538C1191.34 165.932 1189.08 170.364 1187.76 175.832C1186.63 181.112 1186.06 186.675 1186.06 192.521V247.96H1157.78V191.389C1157.78 188.372 1157.68 184.978 1157.5 181.207C1157.31 177.247 1156.55 173.475 1155.23 169.892C1153.91 166.121 1151.84 163.104 1149.01 160.841C1146.18 158.39 1142.22 157.164 1137.13 157.164C1131.1 157.164 1126.38 158.955 1122.99 162.538C1119.59 165.932 1117.24 170.364 1115.92 175.832C1114.78 181.112 1114.22 186.675 1114.22 192.521V247.96H1086.22Z" fill="#121042"/>
<path d="M1009.87 250.789C996.482 250.789 985.545 247.96 977.059 242.303C968.762 236.458 962.539 229.009 958.391 219.958C954.431 210.906 952.356 201.478 952.168 191.672C951.979 179.981 954.148 169.61 958.673 160.558C963.388 151.318 969.988 144.153 978.473 139.061C987.148 133.781 997.33 131.141 1009.02 131.141C1019.39 131.141 1028.73 133.404 1037.02 137.93C1045.32 142.456 1051.83 148.773 1056.54 156.881C1061.44 164.99 1063.99 174.701 1064.18 186.015C1064.18 186.392 1064.18 187.524 1064.18 189.409C1064.18 191.107 1064.18 192.427 1064.18 193.369H979.605C979.605 204.118 982.245 212.415 987.525 218.261C992.993 223.918 1000.25 226.746 1009.3 226.746C1016.47 226.746 1022.41 224.955 1027.12 221.372C1032.03 217.789 1034.95 213.075 1035.89 207.229H1063.9C1063.14 215.338 1060.5 222.692 1055.98 229.292C1051.45 235.892 1045.32 241.172 1037.59 245.132C1029.86 248.903 1020.62 250.789 1009.87 250.789ZM980.453 180.358H1035.33C1035.14 179.038 1034.76 176.964 1034.2 174.135C1033.63 171.307 1032.4 168.384 1030.52 165.367C1028.63 162.35 1025.9 159.804 1022.32 157.73C1018.73 155.655 1014.11 154.618 1008.46 154.618C1002.8 154.618 998.179 155.561 994.596 157.447C991.013 159.333 988.279 161.69 986.393 164.518C984.508 167.347 983.093 170.175 982.15 173.004C981.208 175.832 980.642 178.284 980.453 180.358Z" fill="#121042"/>
<path d="M753.781 247.96V88.7131H804.129L841.465 235.515H842.031L879.085 88.7131H929.15V247.96H899.168L901.148 101.724H900.865L862.68 247.96H820.251L782.632 101.724H782.066L783.763 247.96H753.781Z" fill="#121042"/>
</svg>
